<mxfile host="app.diagrams.net" modified="2023-01-12T05:11:58.202Z" agent="5.0 (Macintosh; Intel Mac OS X 10_14_6) AppleWebKit/537.36 (KHTML, like Gecko) Chrome/108.0.0.0 Safari/537.36" version="20.8.3" etag="A03z9O7btDYsYv_uflYf" type="github">
  <diagram id="SsNloASDty5dA-6P4JGC" name="第 1 页">
    <mxGraphModel dx="641" dy="825" grid="1" gridSize="10" guides="1" tooltips="1" connect="1" arrows="1" fold="1" page="1" pageScale="1" pageWidth="827" pageHeight="1169" math="0" shadow="0">
      <root>
        <mxCell id="0" />
        <mxCell id="1" parent="0" />
        <mxCell id="lK_mjtHSVe1vF9pN3L23-1" value="caller parent BP" style="rounded=0;whiteSpace=wrap;html=1;strokeWidth=2;fillWeight=4;hachureGap=8;hachureAngle=45;fillColor=#f8cecc;strokeColor=#b85450;fontSize=15;fontStyle=1" vertex="1" parent="1">
          <mxGeometry x="1040" y="120" width="159" height="40" as="geometry" />
        </mxCell>
        <mxCell id="lK_mjtHSVe1vF9pN3L23-2" value="local val0" style="rounded=0;whiteSpace=wrap;html=1;strokeWidth=2;fillWeight=4;hachureGap=8;hachureAngle=45;fillColor=#fff2cc;strokeColor=#d6b656;fontSize=15;fontStyle=1" vertex="1" parent="1">
          <mxGeometry x="1040" y="160" width="159" height="40" as="geometry" />
        </mxCell>
        <mxCell id="lK_mjtHSVe1vF9pN3L23-3" value="local val1" style="rounded=0;whiteSpace=wrap;html=1;strokeWidth=2;fillWeight=4;hachureGap=8;hachureAngle=45;fillColor=#fff2cc;strokeColor=#d6b656;fontSize=15;fontStyle=1" vertex="1" parent="1">
          <mxGeometry x="1040" y="200" width="159" height="40" as="geometry" />
        </mxCell>
        <mxCell id="lK_mjtHSVe1vF9pN3L23-4" value="..." style="rounded=0;whiteSpace=wrap;html=1;strokeWidth=2;fillWeight=4;hachureGap=8;hachureAngle=45;fillColor=#fff2cc;strokeColor=#d6b656;fontSize=15;fontStyle=1" vertex="1" parent="1">
          <mxGeometry x="1040" y="240" width="159" height="40" as="geometry" />
        </mxCell>
        <mxCell id="lK_mjtHSVe1vF9pN3L23-5" value="caller returnN" style="rounded=0;whiteSpace=wrap;html=1;strokeWidth=2;fillWeight=4;hachureGap=8;hachureAngle=45;fillColor=#dae8fc;strokeColor=#6c8ebf;fontSize=15;fontStyle=1" vertex="1" parent="1">
          <mxGeometry x="1040" y="280" width="159" height="40" as="geometry" />
        </mxCell>
        <mxCell id="lK_mjtHSVe1vF9pN3L23-6" value="..." style="rounded=0;whiteSpace=wrap;html=1;strokeWidth=2;fillWeight=4;hachureGap=8;hachureAngle=45;fillColor=#dae8fc;strokeColor=#6c8ebf;fontSize=15;fontStyle=1" vertex="1" parent="1">
          <mxGeometry x="1040" y="320" width="159" height="40" as="geometry" />
        </mxCell>
        <mxCell id="lK_mjtHSVe1vF9pN3L23-7" value="caller retern0" style="rounded=0;whiteSpace=wrap;html=1;strokeWidth=2;fillWeight=4;hachureGap=8;hachureAngle=45;fillColor=#dae8fc;strokeColor=#6c8ebf;fontSize=15;fontStyle=1" vertex="1" parent="1">
          <mxGeometry x="1040" y="360" width="159" height="40" as="geometry" />
        </mxCell>
        <mxCell id="lK_mjtHSVe1vF9pN3L23-8" value="caller argN" style="rounded=0;whiteSpace=wrap;html=1;strokeWidth=2;fillWeight=4;hachureGap=8;hachureAngle=45;fillColor=#d5e8d4;strokeColor=#82b366;fontSize=15;fontStyle=1" vertex="1" parent="1">
          <mxGeometry x="1040" y="400" width="159" height="40" as="geometry" />
        </mxCell>
        <mxCell id="lK_mjtHSVe1vF9pN3L23-9" value="..." style="rounded=0;whiteSpace=wrap;html=1;strokeWidth=2;fillWeight=4;hachureGap=8;hachureAngle=45;fillColor=#d5e8d4;strokeColor=#82b366;fontSize=15;fontStyle=1" vertex="1" parent="1">
          <mxGeometry x="1040" y="440" width="159" height="40" as="geometry" />
        </mxCell>
        <mxCell id="lK_mjtHSVe1vF9pN3L23-10" value="caller arg0" style="rounded=0;whiteSpace=wrap;html=1;strokeWidth=2;fillWeight=4;hachureGap=8;hachureAngle=45;fillColor=#d5e8d4;strokeColor=#82b366;fontSize=15;fontStyle=1" vertex="1" parent="1">
          <mxGeometry x="1040" y="480" width="159" height="40" as="geometry" />
        </mxCell>
        <mxCell id="lK_mjtHSVe1vF9pN3L23-11" value="caller PC/IP" style="rounded=0;whiteSpace=wrap;html=1;strokeWidth=2;fillWeight=4;hachureGap=8;hachureAngle=45;fillColor=#b0e3e6;strokeColor=#0e8088;fontSize=15;fontStyle=1" vertex="1" parent="1">
          <mxGeometry x="1040" y="520" width="159" height="40" as="geometry" />
        </mxCell>
        <mxCell id="lK_mjtHSVe1vF9pN3L23-12" value="caller BP" style="rounded=0;whiteSpace=wrap;html=1;strokeWidth=2;fillWeight=4;hachureGap=8;hachureAngle=45;fillColor=#f8cecc;strokeColor=#b85450;fontSize=15;fontStyle=1" vertex="1" parent="1">
          <mxGeometry x="1040" y="560" width="159" height="40" as="geometry" />
        </mxCell>
        <mxCell id="lK_mjtHSVe1vF9pN3L23-13" value="local val0" style="rounded=0;whiteSpace=wrap;html=1;strokeWidth=2;fillWeight=4;hachureGap=8;hachureAngle=45;fillColor=#fff2cc;strokeColor=#d6b656;fontSize=15;fontStyle=1" vertex="1" parent="1">
          <mxGeometry x="1040" y="600" width="159" height="40" as="geometry" />
        </mxCell>
        <mxCell id="lK_mjtHSVe1vF9pN3L23-14" value="local val1" style="rounded=0;whiteSpace=wrap;html=1;strokeWidth=2;fillWeight=4;hachureGap=8;hachureAngle=45;fillColor=#fff2cc;strokeColor=#d6b656;fontSize=15;fontStyle=1" vertex="1" parent="1">
          <mxGeometry x="1040" y="640" width="159" height="40" as="geometry" />
        </mxCell>
        <mxCell id="lK_mjtHSVe1vF9pN3L23-15" value="..." style="rounded=0;whiteSpace=wrap;html=1;strokeWidth=2;fillWeight=4;hachureGap=8;hachureAngle=45;fillColor=#fff2cc;strokeColor=#d6b656;fontSize=15;fontStyle=1" vertex="1" parent="1">
          <mxGeometry x="1040" y="680" width="159" height="40" as="geometry" />
        </mxCell>
        <mxCell id="lK_mjtHSVe1vF9pN3L23-16" value="" style="shape=curlyBracket;whiteSpace=wrap;html=1;rounded=1;flipH=1;labelPosition=right;verticalLabelPosition=middle;align=left;verticalAlign=middle;rotation=-180;" vertex="1" parent="1">
          <mxGeometry x="980" y="130" width="20" height="420" as="geometry" />
        </mxCell>
        <mxCell id="lK_mjtHSVe1vF9pN3L23-17" value="caller 栈桢" style="text;strokeColor=none;fillColor=none;html=1;fontSize=15;fontStyle=1;verticalAlign=middle;align=center;rounded=0;" vertex="1" parent="1">
          <mxGeometry x="880" y="320" width="80" height="40" as="geometry" />
        </mxCell>
        <mxCell id="lK_mjtHSVe1vF9pN3L23-18" value="" style="shape=curlyBracket;whiteSpace=wrap;html=1;rounded=1;flipH=1;labelPosition=right;verticalLabelPosition=middle;align=left;verticalAlign=middle;rotation=-180;" vertex="1" parent="1">
          <mxGeometry x="980" y="570" width="20" height="140" as="geometry" />
        </mxCell>
        <mxCell id="lK_mjtHSVe1vF9pN3L23-19" value="caller 栈桢" style="text;strokeColor=none;fillColor=none;html=1;fontSize=15;fontStyle=1;verticalAlign=middle;align=center;rounded=0;" vertex="1" parent="1">
          <mxGeometry x="880" y="620" width="80" height="40" as="geometry" />
        </mxCell>
        <mxCell id="lK_mjtHSVe1vF9pN3L23-20" value="FP伪寄存器" style="text;strokeColor=none;fillColor=none;html=1;fontSize=15;fontStyle=1;verticalAlign=middle;align=center;rounded=0;" vertex="1" parent="1">
          <mxGeometry x="1480" y="480" width="80" height="40" as="geometry" />
        </mxCell>
        <mxCell id="lK_mjtHSVe1vF9pN3L23-21" value="SP寄存器" style="text;strokeColor=none;fillColor=none;html=1;fontSize=15;fontStyle=1;verticalAlign=middle;align=center;rounded=0;" vertex="1" parent="1">
          <mxGeometry x="1480" y="680" width="80" height="40" as="geometry" />
        </mxCell>
        <mxCell id="lK_mjtHSVe1vF9pN3L23-22" value="" style="shape=curlyBracket;whiteSpace=wrap;html=1;rounded=1;flipH=1;labelPosition=right;verticalLabelPosition=middle;align=left;verticalAlign=middle;fontSize=15;" vertex="1" parent="1">
          <mxGeometry x="1241" y="170" width="20" height="100" as="geometry" />
        </mxCell>
        <mxCell id="lK_mjtHSVe1vF9pN3L23-23" value="caller 局部变量" style="text;strokeColor=none;fillColor=none;html=1;fontSize=15;fontStyle=1;verticalAlign=middle;align=center;rounded=0;" vertex="1" parent="1">
          <mxGeometry x="1280" y="200" width="120" height="40" as="geometry" />
        </mxCell>
        <mxCell id="lK_mjtHSVe1vF9pN3L23-24" value="" style="shape=curlyBracket;whiteSpace=wrap;html=1;rounded=1;flipH=1;labelPosition=right;verticalLabelPosition=middle;align=left;verticalAlign=middle;fontSize=15;" vertex="1" parent="1">
          <mxGeometry x="1241" y="290" width="20" height="100" as="geometry" />
        </mxCell>
        <mxCell id="lK_mjtHSVe1vF9pN3L23-25" value="callee 返回值" style="text;strokeColor=none;fillColor=none;html=1;fontSize=15;fontStyle=1;verticalAlign=middle;align=center;rounded=0;" vertex="1" parent="1">
          <mxGeometry x="1280" y="320" width="120" height="40" as="geometry" />
        </mxCell>
        <mxCell id="lK_mjtHSVe1vF9pN3L23-26" value="" style="shape=curlyBracket;whiteSpace=wrap;html=1;rounded=1;flipH=1;labelPosition=right;verticalLabelPosition=middle;align=left;verticalAlign=middle;fontSize=15;" vertex="1" parent="1">
          <mxGeometry x="1241" y="410" width="20" height="100" as="geometry" />
        </mxCell>
        <mxCell id="lK_mjtHSVe1vF9pN3L23-27" value="callee 函数参数" style="text;strokeColor=none;fillColor=none;html=1;fontSize=15;fontStyle=1;verticalAlign=middle;align=center;rounded=0;" vertex="1" parent="1">
          <mxGeometry x="1280" y="440" width="120" height="40" as="geometry" />
        </mxCell>
        <mxCell id="lK_mjtHSVe1vF9pN3L23-32" value="" style="endArrow=classic;html=1;rounded=0;fontSize=15;strokeWidth=2;exitX=0;exitY=0.5;exitDx=0;exitDy=0;" edge="1" parent="1" source="lK_mjtHSVe1vF9pN3L23-20">
          <mxGeometry width="50" height="50" relative="1" as="geometry">
            <mxPoint x="1431" y="499.23" as="sourcePoint" />
            <mxPoint x="1321" y="499.23" as="targetPoint" />
          </mxGeometry>
        </mxCell>
        <mxCell id="lK_mjtHSVe1vF9pN3L23-34" value="" style="shape=curlyBracket;whiteSpace=wrap;html=1;rounded=1;flipH=1;labelPosition=right;verticalLabelPosition=middle;align=left;verticalAlign=middle;fontSize=15;" vertex="1" parent="1">
          <mxGeometry x="1241" y="610" width="20" height="100" as="geometry" />
        </mxCell>
        <mxCell id="lK_mjtHSVe1vF9pN3L23-35" value="callee 局部变量" style="text;strokeColor=none;fillColor=none;html=1;fontSize=15;fontStyle=1;verticalAlign=middle;align=center;rounded=0;" vertex="1" parent="1">
          <mxGeometry x="1280" y="640" width="120" height="40" as="geometry" />
        </mxCell>
        <mxCell id="lK_mjtHSVe1vF9pN3L23-36" value="" style="endArrow=classic;html=1;rounded=0;fontSize=15;strokeWidth=2;exitX=0;exitY=0.5;exitDx=0;exitDy=0;" edge="1" parent="1">
          <mxGeometry width="50" height="50" relative="1" as="geometry">
            <mxPoint x="1480" y="700" as="sourcePoint" />
            <mxPoint x="1320.9999999999998" y="699.23" as="targetPoint" />
          </mxGeometry>
        </mxCell>
      </root>
    </mxGraphModel>
  </diagram>
</mxfile>
